<svg xmlns="http://www.w3.org/2000/svg" viewBox="0 0 527.69 184.25"><path fill="#fff" d="M359.34 181.72V0h63.6c65.12 0 104.75 38.87 104.75 90.86 0 52.25-39.63 90.86-104.75 90.86zm52.75-137.3v92.88h10.09c35.09 0 52.25-22.21 52.25-46.44 0-24-17.16-46.44-52.25-46.44zM130.48 90.86c0-40.12 23.76-74.68 60.81-88.37L192.58 0h-58.05l-22.47 48.21c-6.31 13.37-12.87 28.27-15.39 37.6h-.51c-2.52-9.33-9.08-24.23-15.39-37.6L58.3 0H0l95.15 184.25h2.53l35.7-69.32a100 100 0 01-2.9-24.07zM294.75 0v21.43c18.79 17.34 29.83 42.09 29.83 69.43 0 27.74-11 52.48-29.83 69.7v21.16h52.76V0z"/></svg>