<svg xmlns="http://www.w3.org/2000/svg" viewBox="0 0 2015.89 725.76"><path fill="#fff" d="M1347.18 724.44V1.46c1.58-.1 2.83-.24 4.08-.24 101.9 0 203.8-.39 305.7.23 71.68.43 137.7 20.89 197.21 60.93 73 49.13 122.94 115.94 146.81 200.68 30.39 107.84 14.27 209.43-48 302.56-45.73 68.41-108.83 115.13-187.15 141a353.63 353.63 0 01-111.19 17.81q-151.65.12-303.3 0zM1524 548h5.89c41.42 0 82.83-.11 124.25 0 38.27.1 73-11.05 104.44-32.57 77.06-52.77 103.59-155.15 59.3-237-35.1-64.8-90.89-98.63-165.28-99.57-41.09-.52-82.2-.11-123.3-.12h-5.3zM0 .17h8.84Q97.61.17 186.38.1c3.37 0 5 .91 6.23 4.18q45.26 118.79 90.71 237.48l87.21 228.09c.5 1.3 1.16 2.53 2.07 4.51 5.4-13.91 10.56-27.07 15.63-40.27q41-106.57 82-213.17 41.67-108.38 83.3-216.77C554.65 1.22 555.85 0 559.2 0q90.93.18 181.86.1c1.4 0 2.8.13 4.32.21-1.3 8-4.2 13.32-12.59 16.64q-129 51.11-194.69 173.5A356.45 356.45 0 00496.84 329q-9.29 106.2 38.53 201.47c2.46 4.86 3 9 .87 14.38Q502.17 631.81 468.75 719c-1.95 5.06-4.29 6.81-9.88 6.78q-87.33-.37-174.67-.07c-3.89 0-5.79-1-7.25-4.84q-35.71-93.5-71.74-186.87Q166 432.11 126.75 330.24q-37.57-97.64-75.09-195.3Q26.93 70.59 2.16 6.24C1.48 4.48.89 2.68 0 .17zM1103.23 1.87H1279v721.84h-175.54v-6.08c0-21.42-.17-42.85.06-64.27 0-2.24 1.78-5 3.57-6.6a422.71 422.71 0 0047-47.82c36.31-43.8 60.72-93.53 74.22-148.7 7.87-32.15 11.92-64.75 10.4-97.83-4.3-93.72-36.66-175.89-101.91-244.21-9.58-10-19.91-19.39-30.07-28.87a10.16 10.16 0 01-3.57-8.29c.15-22.85.07-45.7.07-69.17z"/></svg>