<svg xmlns="http://www.w3.org/2000/svg" viewBox="0 0 194.09 189.3"><g data-name="Layer 2"><g data-name="Layer 1"><path d="M96.92 0c57.29 0 97.17 42.66 97.17 94.65 0 52.75-39.88 94.65-97.17 94.65C39.88 189.3 0 147.4 0 94.65 0 42.66 39.88 0 96.92 0z" fill="#fff"/><path d="M96.71 189.29v-48.77L75.27 132v55.17a108.71 108.71 0 0021.44 2.12zM108.85 136.91v51.76a101.72 101.72 0 0028.21-7.07 2.94 2.94 0 01-.05-.51v-74.15zM14.3 104.36l7.23-4.4 50.12-32.81 1-64.42C28.9 12.9 0 50.39 0 94.65a95.69 95.69 0 0014.3 51.06zM151.08 15.09l-3.48 83.32v78.05c28.78-16.33 46.49-46.66 46.49-81.81 0-33.24-16.29-62.65-43.01-79.56z"/><path d="M63.9 127.61l-37.72-14.73v48a92.53 92.53 0 0037.72 23.3z"/></g></g></svg>